# xmcd CD database file
#
# Track frame offsets:
#	150
#	24317
#	43960
#	66495
#
# Disc length: 1207 seconds
#
# Revision: 0
# Processed by: cddbd v1.5PL3 Copyright (c) Steve Scherf et al.
# Submitted via: CDex 1.51
#
DISCID=3404b504
DTITLE=氷青 - 君のもとへ
DYEAR=2004
DGENRE=JPop
TTITLE0=君のもとへ(Original remix version)
TTITLE1=さよならマリア
TTITLE2=粉雪
TTITLE3=君のもとへ(off vocal version)
EXTD=YEAR: 20040423
EXTT0=
EXTT1=
EXTT2=
EXTT3=
PLAYORDER=
